<svg width="24" height="24" viewBox="0 0 32 32" fill="none" xmlns="http://www.w3.org/2000/svg">
<path d="M5.992,18.611l-2.679,2.682c-0.39,0.391 -0.39,1.024 0,1.414c0.391,0.391 1.025,0.39 1.415,-0l3.027,-3.031c2.098,1.149 4.577,2.094 7.249,2.288l0.016,4.04c0.002,0.552 0.452,0.998 1.004,0.996c0.552,-0.002 0.998,-0.452 0.996,-1.004l-0.016,-4.033c2.281,-0.166 4.421,-0.88 6.302,-1.8c0.002,0.002 0.004,0.004 0.007,0.006l3.533,3.538c0.391,0.39 1.024,0.391 1.415,0c0.39,-0.39 0.39,-1.023 0,-1.414l-3.126,-3.13c3.415,-2.063 5.61,-4.496 5.61,-4.496c0.368,-0.411 0.333,-1.043 -0.078,-1.412c-0.411,-0.368 -1.043,-0.333 -1.412,0.078c0,-0 -5.93,6.667 -13.255,6.667c-7.325,0 -13.255,-6.667 -13.255,-6.667c-0.369,-0.411 -1.001,-0.446 -1.412,-0.078c-0.411,0.369 -0.446,1.001 -0.078,1.412c0,0 1.826,2.024 4.737,3.944Z" fill="#ffff"/>
</svg>
