<svg fill="white" xmlns="http://www.w3.org/2000/svg" viewBox="0 0 24 24" id="loading"><path d="M12 2c-.6 0-1 .4-1 1v3c0 .6.4 1 1 1s1-.4 1-1V3c0-.6-.4-1-1-1zm2.5 5.7c.2.1.3.1.5.1.3 0 .7-.2.9-.5l1.5-2.6c.3-.5.1-1.1-.4-1.4-.5-.3-1.1-.1-1.4.4l-1.5 2.6c-.2.5-.1 1.1.4 1.4zm1.8 1.8c.2.3.5.5.9.5.2 0 .3 0 .5-.1l2.6-1.5c.5-.3.6-.9.4-1.4-.3-.5-.9-.6-1.4-.4l-2.6 1.5c-.5.3-.6.9-.4 1.4zM21 11h-3c-.6 0-1 .4-1 1s.4 1 1 1h3c.6 0 1-.4 1-1 0-.5-.4-1-1-1zm-.7 4.7-2.6-1.5c-.5-.3-1.1-.1-1.4.4-.3.5-.1 1.1.4 1.4l2.6 1.5c.2.1.3.1.5.1.3 0 .7-.2.9-.5.2-.6.1-1.2-.4-1.4zm-4.5 1c-.3-.5-.9-.6-1.4-.4-.5.3-.6.9-.4 1.4l1.5 2.6c.2.3.5.5.9.5.2 0 .3 0 .5-.1.5-.3.6-.9.4-1.4l-1.5-2.6zM12 17c-.5 0-1 .4-1 1v3c0 .6.4 1 1 1 .5 0 1-.4 1-1v-3c0-.5-.5-1-1-1zm-2.5-.7c-.5-.3-1.1-.1-1.4.4l-1.5 2.6c-.3.5-.1 1.1.4 1.4.2.1.3.1.5.1.3 0 .7-.2.9-.5l1.5-2.6c.2-.5.1-1.1-.4-1.4zm-1.8-1.8c-.3-.5-.9-.6-1.4-.4l-2.6 1.5c-.5.3-.6.9-.4 1.4.2.3.5.5.9.5.2 0 .3 0 .5-.1l2.6-1.5c.5-.3.6-.9.4-1.4zM6 13c.5 0 1-.4 1-1s-.4-1-1-1H3c-.5 0-1 .4-1 1s.4 1 1 1h3zM3.7 8.3l2.6 1.5c.2.1.4.2.5.2.3 0 .7-.2.9-.5.3-.5.1-1.1-.4-1.4L4.7 6.6c-.4-.3-1-.1-1.3.3-.3.5-.1 1.1.3 1.4z"></path></svg>