<?xml version="1.0" encoding="iso-8859-1"?>
<!-- Uploaded to: SVG Repo, www.svgrepo.com, Generator: SVG Repo Mixer Tools -->
<svg fill="white" height="800px" width="800px" version="1.1" id="Layer_1" xmlns="http://www.w3.org/2000/svg" xmlns:xlink="http://www.w3.org/1999/xlink" 
	 viewBox="0 0 550 550" xml:space="preserve">
<g>
	<g>
		<g>
			<path d="M245.325,262.101v-48.6c0-0.057,0.008-0.111,0.008-0.168v-52.14c13.571,18.772,21.333,36.813,21.333,52.14
				c0,11.782,9.551,21.333,21.333,21.333c11.782,0,21.333-9.551,21.333-21.333c0-29.208-13.93-58.229-36.675-86.66
				c-7.596-9.495-15.687-18.26-23.788-26.136c-4.914-4.777-8.815-8.261-11.214-10.26c-13.895-11.579-34.991-1.698-34.991,16.389V192
				h-27.422c-34.836,0-57.92,29.65-57.92,65.045c0,34.774,28.191,62.955,62.955,62.955h7.125
				C222.164,320,245.325,296.859,245.325,262.101z M202.658,262.101c0,11.185-4.05,15.232-15.253,15.232h-7.125
				c-11.203,0-20.288-9.082-20.288-20.288c0-13.838,6.649-22.379,15.253-22.379h27.413V262.101z"/>
			<path d="M416,273.133V97.83L318.17,0H32v512h320c70.683,0,128-57.317,128-128C480,336.63,454.256,295.267,416,273.133z
				 M74.667,469.333V42.667h225.83l72.837,72.837V257.78c-4.267-0.716-8.604-1.22-13.003-1.503
				c-0.186-0.012-0.372-0.024-0.558-0.035c-0.657-0.039-1.316-0.076-1.976-0.105c-0.484-0.022-0.968-0.039-1.452-0.055
				c-0.456-0.015-0.91-0.033-1.367-0.044C353.986,256.014,352.994,256,352,256c-70.683,0-128,57.317-128,128
				c0,1.066,0.014,2.128,0.04,3.188c0.009,0.354,0.026,0.706,0.037,1.059c0.023,0.705,0.046,1.411,0.08,2.113
				c0.02,0.417,0.049,0.831,0.073,1.247c0.037,0.636,0.074,1.272,0.121,1.905c0.032,0.441,0.072,0.88,0.109,1.32
				c0.051,0.605,0.102,1.21,0.161,1.812c0.044,0.452,0.094,0.902,0.143,1.352c0.064,0.588,0.129,1.175,0.201,1.761
				c0.056,0.456,0.116,0.911,0.177,1.365c0.077,0.575,0.157,1.15,0.241,1.722c0.068,0.458,0.138,0.914,0.21,1.371
				c0.09,0.569,0.185,1.137,0.282,1.703c0.078,0.452,0.157,0.903,0.24,1.353c0.105,0.569,0.214,1.137,0.326,1.703
				c0.088,0.443,0.175,0.886,0.268,1.328c0.119,0.571,0.245,1.139,0.372,1.707c0.097,0.433,0.192,0.867,0.293,1.299
				c0.135,0.578,0.279,1.154,0.422,1.729c0.104,0.416,0.204,0.832,0.312,1.246c0.157,0.604,0.323,1.205,0.489,1.806
				c0.104,0.379,0.205,0.76,0.313,1.137c0.193,0.675,0.396,1.345,0.6,2.015c0.091,0.301,0.178,0.604,0.271,0.904
				c0.301,0.966,0.613,1.928,0.937,2.884c0.045,0.134,0.095,0.266,0.14,0.4c0.281,0.822,0.568,1.641,0.865,2.455
				c0.122,0.334,0.251,0.665,0.376,0.998c0.228,0.61,0.457,1.22,0.694,1.825c0.149,0.381,0.306,0.759,0.459,1.138
				c0.223,0.553,0.446,1.106,0.676,1.655c0.166,0.396,0.339,0.79,0.509,1.184c0.228,0.528,0.456,1.056,0.691,1.58
				c0.179,0.4,0.363,0.798,0.546,1.196c0.236,0.512,0.473,1.023,0.715,1.531c0.192,0.402,0.386,0.802,0.582,1.201
				c0.245,0.501,0.492,1,0.744,1.497c0.201,0.398,0.404,0.794,0.61,1.189c0.256,0.494,0.516,0.985,0.778,1.475
				c0.21,0.391,0.42,0.782,0.634,1.171c0.269,0.49,0.543,0.978,0.819,1.464c0.216,0.381,0.431,0.762,0.651,1.14
				c0.284,0.49,0.574,0.976,0.864,1.462c0.221,0.37,0.441,0.74,0.665,1.107c0.303,0.495,0.612,0.986,0.922,1.476
				c0.22,0.349,0.438,0.7,0.662,1.047c0.335,0.52,0.677,1.034,1.019,1.548c0.207,0.312,0.411,0.626,0.621,0.935
				c0.404,0.597,0.818,1.187,1.232,1.777c0.156,0.222,0.307,0.446,0.464,0.667c0.574,0.807,1.158,1.607,1.75,2.399
				c0.133,0.178,0.271,0.352,0.404,0.529c0.463,0.613,0.928,1.223,1.401,1.827c0.226,0.288,0.457,0.571,0.686,0.857
				c0.389,0.487,0.777,0.975,1.173,1.457c0.258,0.314,0.521,0.623,0.782,0.935c0.375,0.448,0.75,0.896,1.132,1.339
				c0.276,0.321,0.557,0.637,0.836,0.955c0.26,0.296,0.516,0.596,0.778,0.889H74.667z M352,469.333
				c-47.119,0-85.333-38.214-85.333-85.333s38.214-85.333,85.333-85.333c1.374,0,2.738,0.039,4.096,0.104
				c0.224,0.011,0.449,0.023,0.673,0.036c0.998,0.055,1.988,0.137,2.976,0.226c0.904,0.084,1.807,0.181,2.707,0.294
				c0.242,0.03,0.483,0.061,0.725,0.092c7.874,1.062,15.565,3.237,22.945,6.464l3.602,1.575c28.2,13.929,47.61,42.968,47.61,76.542
				C437.333,431.119,399.119,469.333,352,469.333z"/>
			<path d="M394.667,362.667h-21.333v-21.333c0-11.782-9.551-21.333-21.333-21.333c-11.782,0-21.333,9.551-21.333,21.333v21.333
				h-21.333C297.551,362.667,288,372.218,288,384c0,11.782,9.551,21.333,21.333,21.333h21.333v21.333
				c0,11.782,9.551,21.333,21.333,21.333c11.782,0,21.333-9.551,21.333-21.333v-21.333h21.333c11.782,0,21.333-9.551,21.333-21.333
				C416,372.218,406.449,362.667,394.667,362.667z"/>
		</g>
	</g>
</g>
</svg>